Description



Plot

 
Three young vigilantes huddle on la linea ready to chase illegals back across the border into Mexico... but they soon learn that there are borderlines deep within each one of them that each of them has to cross.



included the sample.
--------------------
Enjoy.



 
Video


Format : xvid
Codec ID : xvid
Duration : 1h 32mn
Bit rate : 1 605 Kbps
Width : 720 pixels
Height : 350 pixels
Display aspect ratio : 2.057
Frame rate : 23.976 fps
Bits/(Pixel*Frame) : 0.266
Stream size : 1.04 GiB (95%)



Audio

ID : 1
Format : MPEG Audio
Format version : Version 1
Format profile : Layer 2
Codec ID : 50
Duration : 1h 32mn
Bit rate mode : Constant
Bit rate : 64.0 Kbps
Channel(s) : 2 channels
Sampling rate : 48.0 KHz
Stream size : 42.5 MiB (4%)
Alignment : Aligned on interleaves
Interleave, duration : 24 ms (0.58 video frame)


Screenshots

 
http://postimg.com/image/17000/16533.jpg